<svg width="51" height="51" viewBox="0 0 51 51" fill="none" xmlns="http://www.w3.org/2000/svg">
<circle cx="25.074" cy="25.074" r="24.8107" fill="url(#paint0_linear_561_675)" stroke="url(#paint1_linear_561_675)" stroke-width="0.526653"/>
<path d="M14.8047 16.5886C14.7528 15.0978 15.9142 13.7231 17.4841 13.7231H33.571C35.141 13.7231 36.3023 15.0978 36.2505 16.5886C36.2006 18.0205 36.2653 19.8755 36.7322 21.3879C37.2005 22.9052 37.9902 23.864 39.2837 23.9873V25.3845C37.9902 25.5079 37.2005 26.4666 36.7322 27.9839C36.2653 29.4963 36.2006 31.3513 36.2505 32.7833C36.3023 34.2741 35.141 35.6485 33.571 35.6485H17.4841C15.9142 35.6485 14.7528 34.2738 14.8047 32.7833C14.8545 31.3513 14.7898 29.4963 14.3228 27.9839C13.8546 26.4669 13.0628 25.5079 11.7693 25.3845V23.9873C13.0628 23.8642 13.8546 22.9052 14.3228 21.3879C14.7898 19.8755 14.8543 18.0205 14.8047 16.5886Z" fill="url(#paint2_linear_561_675)"/>
<g filter="url(#filter0_d_561_675)">
<path d="M26.2069 30.5939C28.7485 30.5939 30.2801 29.3494 30.2801 27.2968C30.2801 25.7452 29.1873 24.6219 27.5646 24.4441V24.3795C28.7568 24.1855 29.6923 23.0784 29.6923 21.842C29.6923 20.0803 28.3015 18.9327 26.1821 18.9327H21.4133V30.5939H26.2069ZM23.2678 20.4116H25.735C27.0762 20.4116 27.8378 21.0096 27.8378 22.0925C27.8378 23.2481 26.952 23.8946 25.3459 23.8946H23.2678V20.4116ZM23.2678 29.115V25.2765H25.7184C27.4735 25.2765 28.3842 25.9229 28.3842 27.1836C28.3842 28.4443 27.4984 29.115 25.826 29.115H23.2678Z" fill="url(#paint3_linear_561_675)"/>
</g>
<defs>
<filter id="filter0_d_561_675" x="20.922" y="18.5642" width="9.84934" height="12.6438" filterUnits="userSpaceOnUse" color-interpolation-filters="sRGB">
<feFlood flood-opacity="0" result="BackgroundImageFix"/>
<feColorMatrix in="SourceAlpha" type="matrix" values="0 0 0 0 0 0 0 0 0 0 0 0 0 0 0 0 0 0 127 0" result="hardAlpha"/>
<feOffset dy="0.12283"/>
<feGaussianBlur stdDeviation="0.24566"/>
<feColorMatrix type="matrix" values="0 0 0 0 0 0 0 0 0 0 0 0 0 0 0 0 0 0 0.15 0"/>
<feBlend mode="normal" in2="BackgroundImageFix" result="effect1_dropShadow_561_675"/>
<feBlend mode="normal" in="SourceGraphic" in2="effect1_dropShadow_561_675" result="shape"/>
</filter>
<linearGradient id="paint0_linear_561_675" x1="10.652" y1="0.526612" x2="48.018" y2="9.42652" gradientUnits="userSpaceOnUse">
<stop stop-color="#04071D"/>
<stop offset="1" stop-color="#0C0E23"/>
</linearGradient>
<linearGradient id="paint1_linear_561_675" x1="25.074" y1="0.526611" x2="25.074" y2="49.6214" gradientUnits="userSpaceOnUse">
<stop stop-color="#66699C" stop-opacity="0.43"/>
<stop offset="1" stop-color="#363749" stop-opacity="0.49"/>
</linearGradient>
<linearGradient id="paint2_linear_561_675" x1="15.8578" y1="14.3034" x2="39.9003" y2="33.3886" gradientUnits="userSpaceOnUse">
<stop stop-color="#9013FE"/>
<stop offset="1" stop-color="#6610F2"/>
</linearGradient>
<linearGradient id="paint3_linear_561_675" x1="22.2523" y1="19.7001" x2="27.6261" y2="28.7888" gradientUnits="userSpaceOnUse">
<stop stop-color="white"/>
<stop offset="1" stop-color="#F1E5FC"/>
</linearGradient>
</defs>
</svg>
