<svg width="15" height="14" viewBox="0 0 15 14" fill="none" xmlns="http://www.w3.org/2000/svg">
<path d="M4.33334 5.639C4.33334 5.22639 4.49725 4.83068 4.78901 4.53892C5.08077 4.24716 5.47648 4.08325 5.88909 4.08325H10.9443C11.1486 4.08325 11.3509 4.12349 11.5396 4.20168C11.7284 4.27986 11.8999 4.39446 12.0443 4.53892C12.1888 4.68339 12.3034 4.85489 12.3816 5.04364C12.4598 5.23239 12.5 5.4347 12.5 5.639V10.6942C12.5 10.8985 12.4598 11.1008 12.3816 11.2895C12.3034 11.4783 12.1888 11.6498 12.0443 11.7943C11.8999 11.9387 11.7284 12.0533 11.5396 12.1315C11.3509 12.2097 11.1486 12.2499 10.9443 12.2499H5.88909C5.68479 12.2499 5.48249 12.2097 5.29373 12.1315C5.10498 12.0533 4.93348 11.9387 4.78901 11.7943C4.64455 11.6498 4.52995 11.4783 4.45177 11.2895C4.37358 11.1008 4.33334 10.8985 4.33334 10.6942V5.639Z" stroke="#E4ECFF" stroke-linecap="round" stroke-linejoin="round"/>
<path d="M2.59033 9.76325C2.41145 9.66127 2.26266 9.51387 2.159 9.33596C2.05535 9.15804 2.0005 8.95591 2 8.75V2.91667C2 2.275 2.525 1.75 3.16667 1.75H9C9.4375 1.75 9.6755 1.97458 9.875 2.33333" stroke="#E4ECFF" stroke-linecap="round" stroke-linejoin="round"/>
</svg>
