<svg width="51" height="51" viewBox="0 0 51 51" fill="none" xmlns="http://www.w3.org/2000/svg">
<circle cx="25.0737" cy="25.0741" r="24.8107" fill="url(#paint0_linear_397_138)" stroke="url(#paint1_linear_397_138)" stroke-width="0.526653"/>
<path d="M30.7764 13.2767H34.2764V16.7767H30.7764V13.2767ZM30.7764 20.2767V30.8904C30.7741 31.7878 30.4166 32.6478 29.782 33.2823C29.1475 33.9169 28.2875 34.2744 27.3901 34.2767H27.2764V37.7767H27.3901C28.2946 37.7771 29.1902 37.5993 30.0259 37.2534C30.8616 36.9075 31.6209 36.4003 32.2605 35.7608C32.9 35.1212 33.4072 34.3619 33.7531 33.5262C34.099 32.6905 34.2768 31.7949 34.2764 30.8904V20.2767H30.7764ZM23.7764 13.2767H27.2764V30.7767H23.7764V13.2767Z" fill="#43A047"/>
<path d="M21.8846 22.0267C22.3861 22.0274 22.8669 22.2269 23.2215 22.5815C23.5761 22.9361 23.7757 23.4169 23.7764 23.9184V28.254L23.1026 28.4789C22.3081 28.7439 21.4546 28.7767 20.6421 28.5734C20.0375 28.4226 19.5007 28.0738 19.1172 27.5825C18.7338 27.0913 18.5258 26.4858 18.5264 25.8627V25.384C18.5271 24.4937 18.8811 23.64 19.5108 23.0105C20.1405 22.381 20.9942 22.0271 21.8846 22.0267ZM21.8846 18.5267C20.066 18.5271 18.322 19.2497 17.0359 20.5356C15.7499 21.8215 15.0271 23.5654 15.0264 25.384V25.8627C15.0259 27.2663 15.4949 28.6298 16.3587 29.7362C17.2225 30.8426 18.4315 31.6283 19.7934 31.9684C21.2516 32.333 22.7836 32.2742 24.2095 31.7987L27.2764 30.7767V23.9184C27.2766 23.2103 27.1373 22.5091 26.8664 21.8548C26.5955 21.2006 26.1984 20.6061 25.6977 20.1054C25.197 19.6047 24.6025 19.2075 23.9482 18.9366C23.294 18.6657 22.5927 18.5264 21.8846 18.5267Z" fill="#43A047"/>
<defs>
<linearGradient id="paint0_linear_397_138" x1="10.6518" y1="0.526673" x2="48.0178" y2="9.42658" gradientUnits="userSpaceOnUse">
<stop stop-color="#04071D"/>
<stop offset="1" stop-color="#0C0E23"/>
</linearGradient>
<linearGradient id="paint1_linear_397_138" x1="25.0737" y1="0.526672" x2="25.0737" y2="49.6214" gradientUnits="userSpaceOnUse">
<stop stop-color="#66699C" stop-opacity="0.43"/>
<stop offset="1" stop-color="#363749" stop-opacity="0.49"/>
</linearGradient>
</defs>
</svg>
