<svg width="95" height="87" viewBox="0 0 95 87" fill="none" xmlns="http://www.w3.org/2000/svg">
<path d="M86.4612 86.9999C76.5969 79.9696 63.0856 75.6197 48.1683 75.6197C33.273 75.6197 19.7618 79.9696 9.89746 86.9999H86.4612Z" fill="white"/>
<path d="M90.7449 82.9338C88.7896 83.1974 62.7338 82.9338 62.7338 82.9338L62.1186 80.2096L59.7459 69.4885C59.7459 69.4885 69.3466 69.9718 68.7534 69.2468C68.1602 68.5438 67.1057 57.5151 61.7671 55.8454C56.4285 54.1757 48.168 53.9341 48.168 53.9341V32.9752L55.7914 27.8563C59.4823 32.1623 79.1669 43.1251 81.5616 48.3758C83.9563 53.6045 93.3592 66.94 94.2161 72.1688C95.0948 77.4195 92.7002 82.6921 90.7449 82.9338Z" fill="url(#paint0_linear_422_179)"/>
<path style="mix-blend-mode:multiply" d="M90.7454 82.9346C88.7901 83.1982 62.7343 82.9346 62.7343 82.9346L62.1191 80.2103C66.9524 80.0126 74.0266 79.6391 80.5296 79.0899C91.8219 78.1232 94.2166 72.1695 94.2166 72.1695C95.0954 77.4202 92.7007 82.6929 90.7454 82.9346Z" fill="url(#paint1_linear_422_179)"/>
<path style="mix-blend-mode:multiply" d="M86.4612 69.864C86.4612 69.864 80.5734 57.0557 74.5977 53.7823L76.487 68.5019L86.4612 69.864Z" fill="url(#paint2_linear_422_179)"/>
<path d="M74.5965 71.1145C74.5965 71.1145 82.8351 68.5661 90.2827 72.2569C90.2827 72.2569 88.3934 68.5221 80.4624 66.8964C80.4624 66.8964 75.4094 50.2655 69.4337 49.4965C63.458 48.7056 63.1504 72.2569 63.1504 72.2569L74.5965 71.1145Z" fill="#00042D"/>
<path d="M38.6118 27.8563C34.9209 32.1623 15.2362 43.1251 12.8416 48.3758C10.4469 53.6045 1.04394 66.94 0.187131 72.1688C-0.691649 77.4195 1.70302 82.6921 3.65831 82.9338C5.6136 83.1974 31.6694 82.9338 31.6694 82.9338L34.6573 69.4885C34.6573 69.4885 25.0566 69.9718 25.6498 69.2468C26.243 68.5438 27.2975 57.5151 32.6361 55.8454C37.9747 54.1757 46.2352 53.9341 46.2352 53.9341V32.9752L38.6118 27.8563Z" fill="url(#paint3_linear_422_179)"/>
<path style="mix-blend-mode:multiply" d="M3.65831 82.9346C5.6136 83.1982 31.6694 82.9346 31.6694 82.9346L32.2846 80.2103C27.4513 80.0126 20.3771 79.6391 13.8741 79.0899C2.5818 78.1232 0.187131 72.1695 0.187131 72.1695C-0.691649 77.4202 1.70302 82.6929 3.65831 82.9346Z" fill="url(#paint4_linear_422_179)"/>
<path style="mix-blend-mode:multiply" d="M7.94141 69.864C7.94141 69.864 13.8292 57.0557 19.8049 53.7823L17.9156 68.5019L7.94141 69.864Z" fill="url(#paint5_linear_422_179)"/>
<path d="M20.5085 71.1145C20.5085 71.1145 12.2699 68.5661 4.82227 72.2569C4.82227 72.2569 6.71164 68.5221 14.6207 66.8964C14.6207 66.8964 19.6736 50.2655 25.6713 49.4965C31.647 48.7056 31.9326 72.2569 31.9326 72.2569L20.5085 71.1145Z" fill="#00042D"/>
<path d="M66.9964 27.0669C66.7108 33.2843 65.6343 46.4001 61.2624 49.9591C57.9889 52.6174 52.0571 50.9477 47.6193 50.9477C42.4345 50.9477 37.1838 53.4523 33.7126 49.9591C30.1975 46.444 28.4839 32.5153 28.2422 27.0669C31.6475 19.773 39.0512 14.6981 47.6193 14.6981C56.2094 14.6981 63.6131 19.773 66.9964 27.0669Z" fill="url(#paint6_linear_422_179)"/>
<path style="mix-blend-mode:multiply" d="M29.0996 20.8923C29.0996 30.0317 31.4284 39.6104 33.2518 43.8505C35.0973 48.0906 41.2048 55.8019 47.6419 56.9443C54.0789 58.0867 60.3842 48.7497 62.4054 43.2133C65.7008 34.2937 66.0084 19.662 66.0084 19.662C66.0084 19.662 55.507 10.1053 45.6866 11.0061C35.8882 11.8848 29.0996 20.8923 29.0996 20.8923Z" fill="url(#paint7_linear_422_179)"/>
<path d="M33.0752 18.6531C33.0752 25.7273 34.8987 33.131 36.3486 36.4044C37.7767 39.6999 41.8191 46.5544 47.619 46.5544C52.7379 46.5544 57.6151 40.2052 59.1969 35.9431C61.7893 29.0227 62.031 17.6864 62.031 17.6864C62.031 17.6864 53.7924 10.3047 46.1031 10.9857C38.3918 11.6668 33.0752 18.6531 33.0752 18.6531Z" fill="#00042D"/>
<path d="M47.6198 0C40.4797 0 28.2207 14.7635 28.2207 26.0778C28.2207 26.4147 28.228 26.7442 28.2427 27.0664C31.6479 19.7726 39.0517 14.6976 47.6198 14.6976C56.2099 14.6976 63.6136 19.7726 66.9969 27.0664C67.0115 26.7442 67.0189 26.4147 67.0189 26.0778C67.0189 14.7635 55.0015 0 47.6198 0Z" fill="url(#paint8_linear_422_179)"/>
<path d="M70.9301 81.7477H24.3108C22.1138 81.7477 20.2684 80.056 20.0927 77.8591L17.4563 47.5632C17.2366 45.0806 19.1919 42.9496 21.6745 42.9496H73.5664C76.071 42.9496 78.0043 45.0806 77.8065 47.5632L75.1702 77.8591C74.9725 80.056 73.149 81.7477 70.9301 81.7477Z" fill="white"/>
<path d="M70.9301 83.0661H24.3108C22.1138 83.0661 20.2684 81.3745 20.0927 79.1775L17.4563 48.8816C17.2366 46.399 19.1919 44.268 21.6745 44.268H73.5664C76.071 44.268 78.0043 46.399 77.8065 48.8816L75.1702 79.1775C74.9725 81.3745 73.149 83.0661 70.9301 83.0661Z" fill="url(#paint9_linear_422_179)"/>
<g style="mix-blend-mode:multiply">
<path d="M24.2449 44.268H21.6745C19.1919 44.268 17.2366 46.399 17.4563 48.8816L20.0927 79.1775C20.2684 81.3745 22.1138 83.0661 24.3108 83.0661H26.1343L24.2449 44.268Z" fill="url(#paint10_linear_422_179)"/>
<path d="M73.5653 44.2679H70.9948L69.1055 83.066H70.9289C73.1479 83.066 74.9713 81.3744 75.169 79.1774L77.8054 48.8815C78.0031 46.3989 76.0698 44.2679 73.5653 44.2679Z" fill="url(#paint11_linear_422_179)"/>
</g>
<defs>
<linearGradient id="paint0_linear_422_179" x1="7.54086" y1="84.7041" x2="66.9593" y2="-24.9328" gradientUnits="userSpaceOnUse">
<stop stop-color="#FF00C1"/>
<stop offset="1" stop-color="#F4AC24"/>
</linearGradient>
<linearGradient id="paint1_linear_422_179" x1="69.8761" y1="86.5852" x2="79.9849" y2="64.365" gradientUnits="userSpaceOnUse">
<stop stop-color="#F4D63B" stop-opacity="0"/>
<stop offset="1" stop-color="#5C1CB2"/>
</linearGradient>
<linearGradient id="paint2_linear_422_179" x1="94.7393" y1="50.4317" x2="90.8769" y2="73.0544" gradientUnits="userSpaceOnUse">
<stop stop-color="#F4D63B" stop-opacity="0"/>
<stop offset="1" stop-color="#5C1CB2"/>
</linearGradient>
<linearGradient id="paint3_linear_422_179" x1="-23.0239" y1="52.1987" x2="18.1071" y2="-23.695" gradientUnits="userSpaceOnUse">
<stop stop-color="#FF00C1"/>
<stop offset="1" stop-color="#F4AC24"/>
</linearGradient>
<linearGradient id="paint4_linear_422_179" x1="24.5276" y1="86.5852" x2="14.4188" y2="64.365" gradientUnits="userSpaceOnUse">
<stop stop-color="#F4D63B" stop-opacity="0"/>
<stop offset="1" stop-color="#5C1CB2"/>
</linearGradient>
<linearGradient id="paint5_linear_422_179" x1="-0.336703" y1="50.4317" x2="3.52573" y2="73.0544" gradientUnits="userSpaceOnUse">
<stop stop-color="#F4D63B" stop-opacity="0"/>
<stop offset="1" stop-color="#5C1CB2"/>
</linearGradient>
<linearGradient id="paint6_linear_422_179" x1="-3.03272" y1="75.3934" x2="44.9421" y2="-13.1281" gradientUnits="userSpaceOnUse">
<stop stop-color="#FF00C1"/>
<stop offset="1" stop-color="#F4AC24"/>
</linearGradient>
<linearGradient id="paint7_linear_422_179" x1="14.2001" y1="55.2638" x2="18.5475" y2="13.0332" gradientUnits="userSpaceOnUse">
<stop stop-color="#F4D63B" stop-opacity="0"/>
<stop offset="1" stop-color="#5C1CB2"/>
</linearGradient>
<linearGradient id="paint8_linear_422_179" x1="-2.75301" y1="75.5087" x2="44.6076" y2="-11.8791" gradientUnits="userSpaceOnUse">
<stop stop-color="#FF00C1"/>
<stop offset="1" stop-color="#F4AC24"/>
</linearGradient>
<linearGradient id="paint9_linear_422_179" x1="75.3277" y1="43.7403" x2="52.2386" y2="103.267" gradientUnits="userSpaceOnUse">
<stop stop-color="#A76DFC"/>
<stop offset="1" stop-color="#5C1CB2"/>
</linearGradient>
<linearGradient id="paint10_linear_422_179" x1="109.754" y1="48.2992" x2="108.017" y2="85.0772" gradientUnits="userSpaceOnUse">
<stop stop-color="white" stop-opacity="0"/>
<stop offset="1" stop-color="#5C1CB2"/>
</linearGradient>
<linearGradient id="paint11_linear_422_179" x1="161.315" y1="50.6401" x2="159.587" y2="87.2167" gradientUnits="userSpaceOnUse">
<stop stop-color="white" stop-opacity="0"/>
<stop offset="1" stop-color="#5C1CB2"/>
</linearGradient>
</defs>
</svg>
