<svg width="51" height="51" viewBox="0 0 51 51" fill="none" xmlns="http://www.w3.org/2000/svg">
<circle cx="25.0737" cy="25.0741" r="24.8107" fill="url(#paint0_linear_397_126)" stroke="url(#paint1_linear_397_126)" stroke-width="0.526653"/>
<path d="M13.5264 13.5267H37.5264V37.5267H13.5264V13.5267Z" fill="#F7DF1E"/>
<path d="M19.837 33.5828L21.6736 32.4713C22.0279 33.0995 22.3503 33.6311 23.1234 33.6311C23.8645 33.6311 24.3319 33.3412 24.3319 32.2136V24.545H26.5872V32.2455C26.5872 34.5814 25.2179 35.6447 23.2201 35.6447C21.4159 35.6447 20.3686 34.7103 19.8369 33.5826M27.8122 33.3411L29.6486 32.2779C30.1321 33.0674 30.7604 33.6473 31.8719 33.6473C32.8065 33.6473 33.4024 33.18 33.4024 32.5356C33.4024 31.7624 32.7902 31.4884 31.7591 31.0375L31.1954 30.7956C29.5682 30.1031 28.4888 29.2331 28.4888 27.3965C28.4888 25.7049 29.7776 24.416 31.7914 24.416C33.2253 24.416 34.2563 24.9155 34.9973 26.2204L33.2412 27.3482C32.8545 26.6555 32.4358 26.3817 31.7914 26.3817C31.1308 26.3817 30.7119 26.8005 30.7119 27.3482C30.7119 28.0248 31.1308 28.2989 32.0974 28.7177L32.6612 28.9593C34.5784 29.781 35.6577 30.6187 35.6577 32.5035C35.6577 34.5335 34.0628 35.645 31.9202 35.645C29.8259 35.645 28.4726 34.6462 27.8121 33.3412" fill="black"/>
<defs>
<linearGradient id="paint0_linear_397_126" x1="10.6518" y1="0.526673" x2="48.0178" y2="9.42658" gradientUnits="userSpaceOnUse">
<stop stop-color="#04071D"/>
<stop offset="1" stop-color="#0C0E23"/>
</linearGradient>
<linearGradient id="paint1_linear_397_126" x1="25.0737" y1="0.526672" x2="25.0737" y2="49.6214" gradientUnits="userSpaceOnUse">
<stop stop-color="#66699C" stop-opacity="0.43"/>
<stop offset="1" stop-color="#363749" stop-opacity="0.49"/>
</linearGradient>
</defs>
</svg>
