<svg width="51" height="51" viewBox="0 0 51 51" fill="none" xmlns="http://www.w3.org/2000/svg">
<circle cx="25.0737" cy="25.0741" r="24.8107" fill="url(#paint0_linear_560_258)" stroke="url(#paint1_linear_560_258)" stroke-width="0.526653"/>
<path fill-rule="evenodd" clip-rule="evenodd" d="M30.7851 20.8918C31.1361 21.9074 31.389 22.9443 31.4721 24.019C31.5754 25.3523 31.5281 26.6762 31.2471 27.9876C31.2394 28.0237 31.2232 28.0576 31.2112 28.0926C31.123 28.0928 31.0331 28.0819 30.9469 28.0952C30.2187 28.2096 29.4911 28.3282 28.7636 28.4461C28.0115 28.5679 27.2584 28.685 26.5076 28.8151C26.2416 28.8611 25.9124 28.8062 25.805 29.1741C25.8019 29.1842 25.7713 29.1859 25.7536 29.1916L25.7899 26.9929L25.7529 21.6878L26.1034 21.6277C26.6765 21.5338 27.2496 21.4387 27.8232 21.3474C28.5076 21.2387 29.1928 21.1331 29.8777 21.027C30.1798 20.9799 30.4823 20.9368 30.7851 20.8918Z" fill="#439934"/>
<path fill-rule="evenodd" clip-rule="evenodd" d="M25.03 35.601C24.6603 35.2832 24.2777 34.9793 23.9233 34.6451C22.0165 32.8465 20.6217 30.7297 19.9348 28.1775C19.7456 27.4751 19.6194 26.7613 19.5789 26.0355C19.5505 25.5276 19.5094 25.015 19.5452 24.5097C19.6408 23.1657 19.8351 21.8346 20.2293 20.5401L20.2509 20.5099C20.2892 20.5609 20.3443 20.6059 20.3638 20.6635C20.7485 21.7966 21.1307 22.9305 21.5105 24.0652C22.7044 27.6309 23.8968 31.1974 25.0927 34.7621C25.1162 34.8317 25.1767 34.8888 25.2203 34.9515L25.03 35.601Z" fill="#45A538"/>
<path fill-rule="evenodd" clip-rule="evenodd" d="M30.7845 20.8918C30.4817 20.9368 30.179 20.9799 29.8769 21.0265C29.192 21.1326 28.5068 21.2383 27.8224 21.347C27.2488 21.4382 26.6757 21.5334 26.1026 21.6272L25.7521 21.6874L25.7495 21.4588C25.7379 21.2709 25.718 21.0832 25.7158 20.8953C25.7007 19.697 25.6913 18.4987 25.6764 17.3003C25.6672 16.5502 25.6535 15.8004 25.6382 15.0505C25.6287 14.5846 25.6187 14.1184 25.5977 13.6531C25.5863 13.4031 25.5461 13.1544 25.5297 12.9043C25.5205 12.7606 25.5332 12.6158 25.536 12.4714C25.7147 12.8177 25.8895 13.1666 26.0732 13.5103C26.3635 14.0537 26.826 14.454 27.2422 14.8908C28.8879 16.6172 30.0562 18.6244 30.7845 20.8918Z" fill="#46A037"/>
<path fill-rule="evenodd" clip-rule="evenodd" d="M25.7534 29.1914C25.7711 29.1857 25.802 29.1839 25.8048 29.1739C25.9122 28.8059 26.2415 28.8608 26.5075 28.8149C27.2582 28.685 28.0114 28.5677 28.7634 28.4459C29.491 28.328 30.2185 28.2094 30.9468 28.095C31.033 28.0814 31.1229 28.0926 31.211 28.0924C31.075 28.578 30.9678 29.0741 30.7952 29.5464C30.5992 30.0821 30.362 30.6049 30.1103 31.1175C29.7336 31.8821 29.2671 32.599 28.7205 33.2531C28.3008 33.758 27.8329 34.2246 27.3639 34.6855C27.1046 34.9403 26.799 35.1479 26.5147 35.377L26.441 35.3266L26.1754 35.0996L25.9006 34.4974C25.713 33.7949 25.6106 33.0723 25.5957 32.3453L25.6007 32.2226L25.6381 31.6919C25.6506 31.5108 25.6672 31.3299 25.6749 31.1483C25.7031 30.496 25.7276 29.8437 25.7534 29.1914Z" fill="#409433"/>
<path fill-rule="evenodd" clip-rule="evenodd" d="M25.7525 29.1914C25.7267 29.8437 25.7022 30.496 25.6744 31.1486C25.6668 31.3301 25.6501 31.511 25.6377 31.6922L25.4703 31.7554C25.0987 30.6612 24.7268 29.5786 24.363 28.4932C23.7614 26.6974 23.1671 24.8989 22.5664 23.1027C22.0812 21.6529 21.5927 20.2043 21.1008 18.7568C21.0778 18.689 21.0118 18.6361 20.9658 18.5761L22.0368 16.6069C22.0736 16.6708 22.1221 16.7305 22.1453 16.7992C22.6413 18.2653 23.1348 19.7322 23.6258 21.2C24.2637 23.1097 24.8976 25.0209 25.5351 26.9308C25.5604 27.0072 25.6024 27.0776 25.6425 27.1632L25.789 26.9925L25.7525 29.1914Z" fill="#4FAA41"/>
<path fill-rule="evenodd" clip-rule="evenodd" d="M20.9667 18.5764C21.0127 18.6363 21.0785 18.6892 21.1017 18.757C21.5936 20.2045 22.0822 21.6532 22.5673 23.1029C23.168 24.8991 23.7624 26.6977 24.3639 28.4934C24.7275 29.5786 25.0994 30.6614 25.4712 31.7556L25.6386 31.6924L25.6012 32.2231L25.5673 32.3454C25.5091 32.9264 25.4601 33.5087 25.3892 34.0884C25.3535 34.3789 25.2779 34.6641 25.2203 34.9518C25.177 34.889 25.1162 34.8319 25.0928 34.7623C23.8969 31.1974 22.7045 27.6311 21.5105 24.0654C21.1307 22.9307 20.7485 21.7968 20.3639 20.6637C20.3444 20.6061 20.2895 20.5611 20.251 20.5101L20.9667 18.5764Z" fill="#4AA73C"/>
<path fill-rule="evenodd" clip-rule="evenodd" d="M25.7893 26.9927L25.6428 27.1634C25.6027 27.0778 25.5607 27.0072 25.5354 26.9311C24.8981 25.0212 24.264 23.1099 23.6261 21.2002C23.1351 19.7325 22.6416 18.2655 22.1456 16.7994C22.1226 16.7307 22.0741 16.6708 22.0371 16.6072L23.3616 14.8648C23.4034 14.9206 23.4629 14.9702 23.4846 15.033C23.8521 16.1096 24.2169 17.1871 24.579 18.2657C24.9174 19.2728 25.2508 20.2815 25.5931 21.2873C25.6161 21.3547 25.6959 21.4024 25.7493 21.4592L25.7519 21.6878C25.7646 23.4559 25.7771 25.2242 25.7893 26.9927Z" fill="#57AE47"/>
<path fill-rule="evenodd" clip-rule="evenodd" d="M25.75 21.4588C25.6966 21.4019 25.6167 21.3542 25.5938 21.2869C25.2514 20.281 24.9181 19.2724 24.5796 18.2653C24.2175 17.1868 23.8527 16.1093 23.4852 15.0326C23.4636 14.9698 23.4041 14.9201 23.3623 14.8644C23.793 14.4426 24.2104 14.0058 24.6584 13.6035C25.0567 13.246 25.377 12.8628 25.3916 12.298C25.3923 12.2746 25.4046 12.2512 25.4234 12.1855L25.5369 12.4712C25.5341 12.6158 25.5211 12.7604 25.5306 12.9041C25.547 13.1542 25.5872 13.4029 25.5986 13.6529C25.6196 14.1182 25.6296 14.5844 25.6391 15.0503C25.6541 15.8002 25.6679 16.55 25.6773 17.3001C25.692 18.4985 25.7016 19.6968 25.7167 20.8951C25.7185 21.0834 25.7381 21.2709 25.75 21.4588Z" fill="#60B24F"/>
<path fill-rule="evenodd" clip-rule="evenodd" d="M25.2196 34.9515C25.2771 34.6638 25.3528 34.3784 25.3885 34.0881C25.4596 33.5086 25.5084 32.9261 25.5665 32.3451L25.581 32.3429L25.5954 32.3453C25.6103 33.0723 25.7127 33.7949 25.9004 34.4974C25.8619 34.5481 25.8074 34.5934 25.787 34.6507C25.628 35.0991 25.4782 35.5511 25.3183 35.9995C25.2964 36.0608 25.2356 36.1085 25.1927 36.1623L25.0293 35.601L25.2196 34.9515Z" fill="#A9AA88"/>
<path fill-rule="evenodd" clip-rule="evenodd" d="M25.1934 36.1625C25.2362 36.1087 25.2973 36.061 25.3189 35.9998C25.4788 35.5513 25.6289 35.0996 25.7877 34.651C25.808 34.5937 25.8623 34.5484 25.901 34.4976L26.1755 35.1001C26.1213 35.1771 26.0465 35.2464 26.0163 35.3321L25.4904 36.8763C25.4688 36.9382 25.3948 36.982 25.3454 37.0342L25.1934 36.1625Z" fill="#B6B598"/>
<path fill-rule="evenodd" clip-rule="evenodd" d="M25.3447 37.034C25.3944 36.982 25.4681 36.938 25.4898 36.8761L26.0156 35.3319C26.0456 35.2464 26.1206 35.1769 26.1749 35.0999L26.4407 35.3267C26.3123 35.4536 26.2409 35.6001 26.2838 35.7854L26.2031 36.0497C26.1664 36.0949 26.1132 36.1343 26.095 36.1862C25.9115 36.7118 25.7363 37.2403 25.5514 37.766C25.528 37.8327 25.4631 37.885 25.4171 37.9436C25.3932 37.6404 25.3691 37.3372 25.3447 37.034Z" fill="#C2C1A7"/>
<path fill-rule="evenodd" clip-rule="evenodd" d="M25.4172 37.9436C25.463 37.8847 25.5279 37.8324 25.5515 37.7659C25.7364 37.2405 25.9116 36.712 26.0951 36.1861C26.1133 36.1345 26.1662 36.0949 26.2032 36.0496L26.0919 37.2626C26.0621 37.2969 26.019 37.3269 26.0048 37.3669C25.879 37.72 25.7605 38.0757 25.6342 38.4287C25.6082 38.5016 25.5583 38.5659 25.5194 38.6339C25.4848 38.5887 25.4229 38.5449 25.4201 38.4977C25.4089 38.3137 25.4166 38.1284 25.4172 37.9436Z" fill="#CECDB7"/>
<path fill-rule="evenodd" clip-rule="evenodd" d="M25.5195 38.634C25.5585 38.5657 25.6083 38.5014 25.6344 38.4288C25.7608 38.0759 25.8792 37.7203 26.0049 37.367C26.0192 37.3269 26.0625 37.2972 26.092 37.2626L26.0946 38.0589L25.8282 38.7423L25.5195 38.634Z" fill="#DBDAC7"/>
<path fill-rule="evenodd" clip-rule="evenodd" d="M25.8281 38.7425L26.0946 38.0591L26.1495 38.8676L25.8281 38.7425Z" fill="#EBE9DC"/>
<path fill-rule="evenodd" clip-rule="evenodd" d="M26.284 35.7856C26.2411 35.6003 26.3122 35.4536 26.4408 35.3269L26.5145 35.3772L26.284 35.7856Z" fill="#CECDB7"/>
<path fill-rule="evenodd" clip-rule="evenodd" d="M25.5953 32.3455L25.5808 32.3431L25.5664 32.3453L25.6003 32.223L25.5953 32.3455Z" fill="#4FAA41"/>
<defs>
<linearGradient id="paint0_linear_560_258" x1="10.6518" y1="0.526673" x2="48.0178" y2="9.42658" gradientUnits="userSpaceOnUse">
<stop stop-color="#04071D"/>
<stop offset="1" stop-color="#0C0E23"/>
</linearGradient>
<linearGradient id="paint1_linear_560_258" x1="25.0737" y1="0.526672" x2="25.0737" y2="49.6214" gradientUnits="userSpaceOnUse">
<stop stop-color="#66699C" stop-opacity="0.43"/>
<stop offset="1" stop-color="#363749" stop-opacity="0.49"/>
</linearGradient>
</defs>
</svg>
