<svg width="51" height="51" viewBox="0 0 51 51" fill="none" xmlns="http://www.w3.org/2000/svg">
<circle cx="25.074" cy="25.074" r="24.8107" fill="url(#paint0_linear_54_478)" stroke="url(#paint1_linear_54_478)" stroke-width="0.526653"/>
<path d="M26.0116 27.9099C27.3421 27.9099 28.4206 26.8309 28.4206 25.4998C28.4206 24.1688 27.3421 23.0897 26.0116 23.0897C24.6811 23.0897 23.6025 24.1688 23.6025 25.4998C23.6025 26.8309 24.6811 27.9099 26.0116 27.9099Z" fill="#00D8FF"/>
<path d="M26.0115 31.021C22.6283 31.021 19.6722 30.6226 17.4599 29.864C16.025 29.3743 14.8061 28.7214 13.9375 27.9772C13.0161 27.1898 12.5266 26.3305 12.5266 25.4999C12.5266 23.9059 14.2734 22.3456 17.2055 21.3278C19.605 20.4924 22.7339 20.0267 26.0067 20.0267C29.2219 20.0267 32.3076 20.478 34.6927 21.3038C36.0892 21.7839 37.2649 22.408 38.0999 23.0994C39.0069 23.8579 39.4868 24.6885 39.4868 25.4999C39.4868 27.1562 37.5336 28.8318 34.3856 29.8736C32.1589 30.613 29.1836 31.021 26.0115 31.021ZM26.0115 21.179C22.9066 21.179 19.8353 21.6303 17.5894 22.4128C14.8925 23.3538 13.6831 24.6405 13.6831 25.4999C13.6831 26.3929 14.9836 27.7996 17.8342 28.7742C19.9265 29.4895 22.7578 29.8688 26.0115 29.8688C29.0636 29.8688 31.9093 29.4847 34.0256 28.779C36.9866 27.7948 38.3398 26.3881 38.3398 25.4999C38.3398 25.0438 37.9943 24.5061 37.3657 23.9828C36.641 23.3778 35.5853 22.8257 34.3232 22.3888C32.0533 21.6111 29.102 21.179 26.0115 21.179Z" fill="#00D8FF"/>
<path d="M20.5457 37.5119C20.0562 37.5119 19.6243 37.4062 19.2596 37.195C17.8823 36.398 17.4024 34.1031 17.9831 31.0545C18.4582 28.5532 19.6195 25.615 21.256 22.7776C22.8636 19.993 24.7927 17.5445 26.6979 15.8881C27.8112 14.9183 28.939 14.2078 29.9563 13.8333C31.0649 13.4252 32.0247 13.4252 32.7253 13.8285C34.1602 14.6543 34.6353 17.1892 33.9634 20.4347C33.4883 22.7392 32.3558 25.5189 30.7722 28.2699C29.0829 31.1985 27.2594 33.5606 25.4982 35.1018C24.356 36.1004 23.1803 36.8301 22.1054 37.2094C21.5439 37.411 21.016 37.5119 20.5457 37.5119ZM21.7502 23.0656L22.2493 23.3537C20.6993 26.0422 19.5523 28.9277 19.1108 31.2705C18.5782 34.0791 19.0917 35.7691 19.8307 36.1964C20.013 36.302 20.253 36.3596 20.5457 36.3596C21.5007 36.3596 23.0028 35.7547 24.74 34.2376C26.4052 32.7829 28.1472 30.5168 29.774 27.6986C31.3 25.0532 32.3846 22.3935 32.8357 20.209C33.4643 17.1508 32.9221 15.2784 32.1494 14.8319C31.7559 14.6062 31.1177 14.635 30.3499 14.9183C29.4621 15.2448 28.4591 15.8833 27.4513 16.7619C25.6421 18.3366 23.7946 20.6795 22.2493 23.3585L21.7502 23.0656Z" fill="#00D8FF"/>
<path d="M31.4777 37.5266C30.1724 37.5266 28.5168 36.7392 26.7892 35.2509C24.86 33.5898 22.8973 31.1173 21.2561 28.2799C19.6436 25.4953 18.4919 22.6003 18.0072 20.1181C17.7241 18.6682 17.6713 17.3384 17.8537 16.2677C18.0552 15.1011 18.5303 14.2705 19.2357 13.8624C20.6658 13.0318 23.0988 13.8864 25.5751 16.0901C27.3315 17.6504 29.1742 20.0221 30.7627 22.7683C32.4567 25.6969 33.594 28.4575 34.0451 30.7524C34.3378 32.2407 34.3858 33.6234 34.1795 34.7468C33.9587 35.9423 33.4596 36.792 32.7398 37.2097C32.3799 37.421 31.9528 37.5266 31.4777 37.5266ZM22.2542 27.7037C23.8091 30.3923 25.7382 32.8264 27.5426 34.3771C29.7069 36.2399 31.4249 36.6432 32.1687 36.2111C32.9414 35.7646 33.5076 33.9354 32.9222 30.978C32.4903 28.808 31.4009 26.1674 29.7693 23.3492C28.2385 20.7039 26.4773 18.433 24.812 16.9543C22.4798 14.8802 20.589 14.4145 19.8164 14.861C19.4229 15.0867 19.1302 15.658 18.991 16.4646C18.8326 17.396 18.8806 18.5866 19.1398 19.8973C19.6005 22.2546 20.7042 25.0248 22.2542 27.7037Z" fill="#00D8FF"/>
<defs>
<linearGradient id="paint0_linear_54_478" x1="10.652" y1="0.526612" x2="48.018" y2="9.42652" gradientUnits="userSpaceOnUse">
<stop stop-color="#04071D"/>
<stop offset="1" stop-color="#0C0E23"/>
</linearGradient>
<linearGradient id="paint1_linear_54_478" x1="25.074" y1="0.526611" x2="25.074" y2="49.6214" gradientUnits="userSpaceOnUse">
<stop stop-color="#66699C" stop-opacity="0.43"/>
<stop offset="1" stop-color="#363749" stop-opacity="0.49"/>
</linearGradient>
</defs>
</svg>
