<svg width="123" height="87" viewBox="0 0 123 87" fill="none" xmlns="http://www.w3.org/2000/svg">
<path fill-rule="evenodd" clip-rule="evenodd" d="M40.3838 4.99199C38.6748 7.64539 37.8878 10.9734 37.1232 14.1889C36.5611 16.4826 34.9645 24.3753 34.7846 30.2442C34.4398 30.3192 34.0876 30.3942 33.7278 30.4691C32.2662 30.7839 30.7371 31.2337 29.2979 31.7508C29.0131 31.8558 28.7358 31.9607 28.4659 32.0657C28.2111 32.1706 27.9562 32.2755 27.7014 32.3805C27.2517 32.5828 26.8244 32.7852 26.4422 32.9876L26.4197 33.0101H26.3972C25.8575 33.3249 24.2385 34.4717 20.9105 38.7216L20.888 38.7441L20.8655 38.7666C17.7174 42.7917 13.9622 48.3233 9.75723 55.2492C0.650223 70.2026 -0.159286 75.7343 0.020607 78.6126V78.635C0.0355988 78.785 0.0505905 78.9199 0.0655823 79.0398C0.470337 82.5027 3.10124 84.9537 7.17129 85.6508C9.86966 86.5278 13.2201 87 16.9079 87C18.347 87 19.8536 86.91 21.3827 86.7751C22.1697 86.7077 23.0917 86.6177 24.1036 86.5278C33.5479 85.6958 51.2897 84.2791 51.4696 84.2567L52.2116 84.1892L52.8187 83.7395C62.5104 76.3414 63.0051 74.9473 63.2525 74.2727L64.3993 71.1246L61.0488 70.8547C60.9588 70.8547 51.5595 70.1127 35.9989 68.0439C35.4817 67.9765 34.7172 67.954 33.7503 67.954C31.9963 67.954 28.8932 68.0664 25.4528 68.4712C25.7376 68.3662 26.0299 68.2763 26.3297 68.2013C28.6683 67.5268 30.6921 65.9977 32.0413 63.9289C34.6497 59.8589 36.1113 56.7108 36.5161 54.3047C36.606 53.7426 36.8759 52.0786 35.8415 46.2996C35.9164 46.2996 35.9839 46.2996 36.0439 46.2996C36.8309 46.3895 37.7978 46.4795 38.8547 46.4795C45.6006 46.4795 50.3902 42.297 53.4709 33.7072C55.8994 26.8713 58.6202 22.5539 61.5435 20.8674C62.5554 20.2828 63.8821 19.9904 65.4786 19.9904C65.8384 19.9904 66.2057 20.0054 66.5804 20.0354C67.5249 20.1029 68.3794 20.2603 69.0764 20.4177C68.1545 21.4521 67.5024 22.7563 67.2775 24.1954C66.9402 26.6464 66.3781 28.8726 65.8609 30.0644C65.2987 31.3011 64.9614 32.4254 64.6691 33.4148C64.1519 35.1463 63.8371 36.0907 62.8927 36.9452C60.0819 39.5311 57.9681 40.8578 56.574 40.8578C56.2367 40.8578 55.9219 40.7904 55.4497 40.633L51.0648 39.1489L52.1442 43.6462C52.2341 43.961 53.0211 46.8392 56.7764 47.8511H56.7988C57.8107 48.121 58.8451 48.2559 59.857 48.2559C59.9469 48.2559 60.4416 48.2784 62.9826 48.4358C64.849 48.5707 66.2881 50.0548 66.3781 51.8987C66.9177 64.4911 66.3556 67.999 66.1307 68.8534C65.636 69.9778 61.8583 77.6681 60.3517 80.299C59.9245 81.0636 59.4522 81.8281 58.9351 82.6376L56.4616 86.5503H71.9772L72.1346 84.1442C72.1346 84.1217 72.2695 82.098 72.4044 79.1073C76.1597 82.1654 79.0379 84.459 79.0829 84.504L80.2297 85.4259L81.6239 84.8863C81.7588 84.8188 85.1542 83.4696 88.5722 81.9406C90.6184 80.9961 92.2599 80.1866 93.4068 79.512C94.7335 78.77 97.162 77.3758 96.5549 75.0147C96.1501 73.3732 90.2362 64.0638 88.4148 61.2306C86.0087 57.4753 80.0498 48.3458 76.8343 44.6581C75.4626 43.1065 74.0684 41.7573 72.5843 40.5655C74.2033 38.3619 75.3951 36.1357 76.1597 34.4492C77.9586 30.5815 79.2628 23.8581 78.3184 20.665V20.6201L78.2959 20.5976C78.2959 20.5976 78.2284 20.3502 78.071 19.923C77.7337 19.001 77.3514 18.0791 76.9692 17.2021C75.9348 14.841 74.5181 11.648 72.2695 9.4443C66.2881 3.6428 57.9681 0.112432 50.0079 0C49.933 0 49.858 0 49.7831 0C45.6456 0 42.4975 1.664 40.3838 4.99199ZM49.9855 2.54097C57.6084 2.6534 65.2987 6.22874 70.4931 11.2657C72.3819 13.1096 73.6862 16.0553 74.6306 18.214C75.1028 19.3158 75.4626 20.2378 75.665 20.7999C75.7999 21.1597 75.8673 21.3846 75.8673 21.3846C76.5419 23.6782 75.5975 29.6146 73.8436 33.3923C73.1465 34.8989 71.4825 38.2494 68.8965 41.0602C70.9878 42.3869 72.9441 44.0734 74.9229 46.3445C80.0048 52.146 93.7216 74.1602 94.0813 75.6219C94.4411 77.061 80.6794 82.5027 80.6794 82.5027C80.6794 82.5027 75.6425 78.4776 70.1108 73.9354C69.8635 79.512 69.5936 83.9868 69.5936 83.9868H61.0938C61.6034 83.1923 62.0907 82.3828 62.5554 81.5583C64.1969 78.725 68.4243 70.0902 68.5592 69.7079C69.4137 66.8746 69.1889 57.7676 68.919 51.7863C68.7841 48.6382 66.3106 46.1197 63.1625 45.8948C61.6109 45.8049 60.2168 45.7149 59.857 45.7149C59.0925 45.7149 58.2829 45.6025 57.4285 45.4001C55.0224 44.7255 54.6177 43.039 54.6177 43.039C55.2248 43.2414 55.8544 43.3988 56.574 43.3988C58.3729 43.3988 60.7115 42.4319 64.6241 38.8341C66.9177 36.6979 66.7603 34.2468 68.177 31.1212C68.8291 29.6821 69.4362 27.2086 69.8185 24.5777C70.1558 22.2841 72.0896 20.6425 74.3158 20.6425C74.6456 20.6425 74.9829 20.68 75.3277 20.755C74.6756 20.1029 73.4613 19.1135 71.7073 18.5063C71.2576 18.3489 69.2338 17.6968 66.7828 17.4944C66.3631 17.4645 65.9283 17.4495 65.4786 17.4495C63.7247 17.4495 61.8583 17.7418 60.2618 18.6637C55.3597 21.497 52.3915 29.1649 51.0648 32.8527C47.6244 42.4769 42.6999 43.9385 38.8547 43.9385C37.3706 43.9385 36.0664 43.7136 35.0545 43.6687C35.0245 43.6687 34.9945 43.6687 34.9645 43.6687C33.9976 43.6687 33.2106 44.4107 33.1431 45.3326C33.1281 45.4826 33.1356 45.64 33.1656 45.8049C33.6378 48.3233 34.2674 52.236 33.9976 53.9C33.6153 56.2386 31.8839 59.4541 29.8826 62.5573C28.8932 64.0863 27.3866 65.2331 25.6327 65.7503C23.3615 66.3799 21.2253 67.2344 19.5388 68.3363C18.5944 68.9209 14.367 71.5968 13.0403 74.2502C17.6949 71.4169 28.9157 70.495 33.7503 70.495C34.6047 70.495 35.2568 70.5174 35.6616 70.5849C51.4696 72.6761 60.8689 73.4182 60.8689 73.4182C60.3742 74.7674 51.2672 81.7157 51.2672 81.7157C51.2672 81.7157 33.4579 83.1548 23.8787 83.9868C22.8668 84.0768 21.9449 84.1667 21.1354 84.2342C19.6663 84.3691 18.2571 84.4366 16.9079 84.4366C13.3101 84.4366 10.1845 83.9868 7.77843 83.1773C5.14751 82.7726 2.89887 81.4458 2.60654 78.7475C2.59155 78.6425 2.57656 78.5376 2.56157 78.4327C2.33671 74.9698 4.6753 68.5162 11.9384 56.5759C16.818 48.5482 20.3933 43.5112 22.8668 40.3407C22.8818 40.3257 22.8968 40.3107 22.9118 40.2957C26.2848 36.0008 27.6564 35.2362 27.6564 35.2362C27.9488 35.0788 28.3085 34.8989 28.7358 34.719C28.9457 34.6291 29.1705 34.5392 29.4104 34.4492C29.6502 34.3443 29.9051 34.2468 30.1749 34.1569C31.3442 33.7296 32.7833 33.2799 34.2899 32.9426C34.6197 32.8677 34.957 32.8002 35.3018 32.7402H35.3243C36.4711 32.5154 37.2806 31.5485 37.3256 30.4017C37.483 25.0049 38.9896 17.337 39.5967 14.7736C41.0808 8.63479 42.5649 2.54097 49.7831 2.54097C49.843 2.54097 49.9105 2.54097 49.9855 2.54097Z" fill="#00042D"/>
<path d="M2.56233 78.4318C2.57732 78.5368 2.59232 78.6417 2.60731 78.7466C2.89963 81.445 5.14827 82.7717 7.77918 83.1765C11.0847 84.2783 15.7844 84.728 21.1361 84.2333C21.9456 84.1659 22.8676 84.0759 23.8795 83.986C33.4587 83.154 51.2679 81.7149 51.2679 81.7149C51.2679 81.7149 60.3749 76.0033 60.8696 74.6541C60.8696 74.6541 59.5429 74.3618 57.0469 73.9121C55.3605 73.5972 53.1343 73.215 50.391 72.7653C46.4558 72.1131 41.4863 71.3486 35.6624 70.5841C33.0764 70.2243 18.5052 70.9214 13.041 74.2494C14.3677 71.596 18.5952 68.9201 19.5396 68.3129C21.2261 67.2336 23.3623 66.3791 25.6334 65.7495C27.3874 65.2323 28.8939 64.0855 29.8833 62.5564C31.8846 59.4533 33.6161 56.2377 33.9984 53.8991C34.2682 52.2351 33.6386 48.3225 33.1664 45.804C33.1364 45.6391 33.1289 45.4817 33.1439 45.3318C33.2338 44.3874 34.0433 43.6228 35.0552 43.6678C38.698 43.8477 46.2984 46.1863 51.0656 32.8518C52.3923 29.1641 55.3605 21.4962 60.2625 18.6629C62.2638 17.5161 64.6698 17.3362 66.7836 17.4936C69.2346 17.696 71.2584 18.3481 71.7081 18.5055C73.462 19.1126 74.6763 20.102 75.3284 20.7541C74.9836 20.6792 74.6463 20.6417 74.3165 20.6417C72.0904 20.6417 70.1565 22.2832 69.8192 24.5768C69.437 27.2077 68.8298 29.6812 68.1777 31.1204C66.7611 34.246 66.9185 36.697 64.6249 38.8332C59.1607 43.8702 56.7321 43.7578 54.6184 43.0382C54.6184 43.0382 55.0232 44.7247 57.4292 45.3993C58.2837 45.6016 59.0932 45.7141 59.8577 45.7141C60.2175 45.7141 61.6117 45.804 63.1633 45.894C66.3114 46.1188 68.7849 48.6373 68.9198 51.7854C69.1896 57.7668 69.4145 66.8738 68.56 69.7071C68.4251 70.0894 64.1976 78.7242 62.5561 81.5574C62.0914 82.3819 61.6042 83.1915 61.0945 83.986H69.5944C69.5944 83.986 69.8642 79.5112 70.1116 73.9345C75.6432 78.4768 80.6802 82.5019 80.6802 82.5019C80.6802 82.5019 94.4419 77.0602 94.0821 75.621C93.7223 74.1594 80.0056 52.1452 74.9237 46.3437C72.9449 44.0726 70.9885 42.3861 68.8973 41.0594C71.4832 38.2486 73.1472 34.8981 73.8443 33.3915C75.5982 29.6138 76.5427 23.6774 75.8681 21.3838C75.8681 21.3838 75.8006 21.1589 75.6657 20.7991C75.4633 20.2369 75.1035 19.315 74.6313 18.2132C73.6869 16.0545 72.3827 13.1087 70.4938 11.2649C65.2995 6.2279 57.6091 2.65256 49.9862 2.54013C42.5882 2.42769 41.0816 8.56649 39.5975 14.7727C38.9903 17.3362 37.4838 25.0041 37.3264 30.4008C37.2814 31.5476 36.4719 32.5145 35.3251 32.7394H35.3026C34.9578 32.7994 34.6205 32.8668 34.2907 32.9418C32.7841 33.2791 31.345 33.7288 30.1757 34.156C29.9058 34.246 29.651 34.3434 29.4111 34.4484C29.1713 34.5383 28.9464 34.6283 28.7365 34.7182C28.3093 34.8981 27.9495 35.078 27.6572 35.2354C27.6572 35.2354 26.2855 35.9999 22.9126 40.2948C22.8976 40.3098 22.8826 40.3248 22.8676 40.3398C20.3941 43.5104 16.8187 48.5474 11.9392 56.575C4.67606 68.5153 2.33746 74.9689 2.56233 78.4318Z" fill="url(#paint0_linear_422_206)"/>
<path style="mix-blend-mode:multiply" d="M19.539 68.3357C21.2255 67.2339 23.3617 66.3794 25.6329 65.7498C27.3868 65.2326 28.8934 64.0858 29.8828 62.5567C31.8841 59.4536 33.6155 56.238 33.9978 53.8995C34.2676 52.2355 33.638 48.3228 33.1658 45.8043C33.1358 45.6394 33.1283 45.482 33.1433 45.3321C32.5137 47.3784 32.5362 50.4365 31.8841 52.3029C28.1513 63.5012 20.2136 67.5262 19.539 68.3357Z" fill="url(#paint1_linear_422_206)"/>
<path style="mix-blend-mode:multiply" d="M2.56144 78.4334C2.57643 78.5384 2.59143 78.6433 2.60641 78.7482C2.89874 81.4466 5.14738 82.7733 7.77829 83.178C11.0838 84.2799 15.7835 84.7296 21.1352 84.2349C21.9448 84.1675 22.8667 84.0775 23.8786 83.9876C33.4578 83.1556 51.2671 81.7164 51.2671 81.7164C51.2671 81.7164 54.8199 76.9043 57.0461 73.9136C55.3596 73.5988 53.1334 73.2166 50.3901 72.7668C48.3213 75.6901 45.2407 77.7813 38.7646 78.6583C29.3428 79.94 22.372 81.2892 14.097 80.4347C9.68964 79.985 6.45159 77.9837 6.78889 75.2403C7.89072 65.5487 17.7848 47.4021 22.8667 40.3414C20.3932 43.512 16.8178 48.5489 11.9383 56.5766C4.67517 68.5169 2.33657 74.9705 2.56144 78.4334Z" fill="url(#paint2_linear_422_206)"/>
<path d="M77.9589 84.2559H33.8181C33.2334 84.2559 32.7612 83.7837 32.7612 83.199V82.5469C32.7612 81.9623 33.2334 81.5125 33.8181 81.5125H77.9589C78.5436 81.5125 79.0158 81.9623 79.0158 82.5469V83.199C79.0158 83.7837 78.5436 84.2559 77.9589 84.2559Z" fill="white"/>
<path d="M68.6271 84.2559H23.137C22.7323 84.2559 22.395 83.9186 22.395 83.5138V82.8842C22.395 82.1197 23.0246 81.5125 23.7891 81.5125H68.6271C68.6421 81.5125 68.6496 81.5125 68.6496 81.5125V84.2334C68.6496 84.2484 68.6421 84.2559 68.6271 84.2559Z" fill="white"/>
<path d="M68.6271 84.2559H23.137C22.7323 84.2559 22.395 83.9186 22.395 83.5138V82.8842C22.395 82.1197 23.0246 81.5125 23.7891 81.5125H68.6271C68.6421 81.5125 68.6496 81.5125 68.6496 81.5125V84.2334C68.6496 84.2484 68.6421 84.2559 68.6271 84.2559Z" fill="white"/>
<path d="M102.761 84.2569H50.7727C49.7158 84.2569 48.9962 83.1551 49.4235 82.1881L64.7592 46.7495C65.0066 46.2099 65.5238 45.8726 66.1309 45.8726H118.12C119.176 45.8726 119.896 46.9519 119.469 47.9413L104.133 83.3574C103.886 83.8971 103.368 84.2569 102.761 84.2569Z" fill="url(#paint3_linear_422_206)"/>
<path d="M102.761 84.2569H50.7727C49.7158 84.2569 48.9962 83.1551 49.4235 82.1881L64.7592 46.7495C65.0066 46.2099 65.5238 45.8726 66.1309 45.8726H118.12C119.176 45.8726 119.896 46.9519 119.469 47.9413L104.133 83.3574C103.886 83.8971 103.368 84.2569 102.761 84.2569Z" fill="white"/>
<path d="M105.302 84.2566H53.3137C52.2568 84.2566 51.5372 83.1548 51.9645 82.1879L67.3002 46.7493C67.5476 46.2096 68.0648 45.8723 68.6719 45.8723H120.661C121.717 45.8723 122.437 46.9517 122.01 47.9411L106.674 83.3572C106.427 83.8969 105.909 84.2566 105.302 84.2566Z" fill="url(#paint4_linear_422_206)"/>
<path style="mix-blend-mode:multiply" d="M54.6183 43.0393C54.6183 43.0393 55.8775 45.4228 58.8907 44.8157C64.962 43.6239 68.8072 39.2391 70.876 33.7299C72.1577 30.3344 72.6074 27.2763 73.0572 25.0052C73.5519 22.3518 75.3283 20.7552 75.3283 20.7552C74.9835 20.6803 74.6462 20.6428 74.3164 20.6428C72.0902 20.6428 70.1564 22.2843 69.8191 24.5779C69.4368 27.2088 68.8297 29.6823 68.1776 31.1215C66.761 34.2471 66.9184 36.6981 64.6247 38.8343C59.1605 43.8713 56.732 43.7588 54.6183 43.0393Z" fill="url(#paint5_linear_422_206)"/>
<path style="mix-blend-mode:multiply" d="M35.055 43.668C38.6978 43.8479 46.2982 46.1865 51.0653 32.852C52.392 29.1643 55.3603 21.4964 60.2623 18.6631C62.2636 17.5163 64.6696 17.3364 66.7834 17.4938C53.4939 14.9303 50.863 24.7344 45.5112 33.9988C41.1488 41.5543 36.6965 42.4537 35.055 43.668Z" fill="url(#paint6_linear_422_206)"/>
<path d="M42.3629 54.3719C42.5203 51.5836 42.6552 48.7278 42.6327 46.9964C42.6327 46.749 42.8126 46.5466 43.06 46.5466C43.3073 46.5466 43.5097 46.7265 43.5097 46.9739C43.5322 48.7503 43.3748 51.6286 43.2399 54.4169C43.105 56.8454 42.9925 59.3864 42.9925 61.0279C42.9925 61.2528 42.7901 61.4551 42.5428 61.4551C42.2954 61.4551 42.1156 61.2528 42.1156 61.0279C42.1156 59.3639 42.228 56.9354 42.3629 54.3719Z" fill="url(#paint7_linear_422_206)"/>
<path d="M53.9884 47.852C53.9884 47.6046 54.1683 47.4022 54.4156 47.4022C54.663 47.4022 54.8654 47.5821 54.8654 47.8295C54.9103 50.6628 54.7754 53.8333 54.6405 56.914C54.573 58.2857 54.5056 59.6124 54.4606 60.8716C54.4606 61.1189 54.2582 61.2988 54.0334 61.2988C54.0334 61.2988 54.0259 61.2988 54.0109 61.2988C53.786 61.2988 53.5836 61.074 53.5836 60.8491C53.6286 59.5674 53.6961 58.2407 53.7635 56.869C53.8984 53.8108 54.0334 50.6628 53.9884 47.852Z" fill="url(#paint8_linear_422_206)"/>
<defs>
<linearGradient id="paint0_linear_422_206" x1="99.3455" y1="71.3589" x2="82.687" y2="-8.34063" gradientUnits="userSpaceOnUse">
<stop stop-color="#FF00C1"/>
<stop offset="1" stop-color="#F4AC24"/>
</linearGradient>
<linearGradient id="paint1_linear_422_206" x1="44.9168" y1="70.798" x2="46.0523" y2="44.4504" gradientUnits="userSpaceOnUse">
<stop stop-color="#F4D63B" stop-opacity="0"/>
<stop offset="1" stop-color="#5C1CB2"/>
</linearGradient>
<linearGradient id="paint2_linear_422_206" x1="1.73237" y1="52.9232" x2="22.1692" y2="115.869" gradientUnits="userSpaceOnUse">
<stop stop-color="#F4D63B" stop-opacity="0"/>
<stop offset="1" stop-color="#5C1CB2"/>
</linearGradient>
<linearGradient id="paint3_linear_422_206" x1="74.9744" y1="41.9208" x2="64.5067" y2="82.954" gradientUnits="userSpaceOnUse">
<stop stop-color="#A76DFC"/>
<stop offset="1" stop-color="#5C1CB2"/>
</linearGradient>
<linearGradient id="paint4_linear_422_206" x1="77.5158" y1="41.9205" x2="67.0482" y2="82.9538" gradientUnits="userSpaceOnUse">
<stop stop-color="#A76DFC"/>
<stop offset="1" stop-color="#5C1CB2"/>
</linearGradient>
<linearGradient id="paint5_linear_422_206" x1="92.7755" y1="51.2142" x2="72.7464" y2="6.05406" gradientUnits="userSpaceOnUse">
<stop stop-color="#F4D63B" stop-opacity="0"/>
<stop offset="1" stop-color="#5C1CB2"/>
</linearGradient>
<linearGradient id="paint6_linear_422_206" x1="42.0215" y1="6.1494" x2="32.626" y2="47.8905" gradientUnits="userSpaceOnUse">
<stop stop-color="#F4D63B" stop-opacity="0"/>
<stop offset="1" stop-color="#5C1CB2"/>
</linearGradient>
<linearGradient id="paint7_linear_422_206" x1="-37.2786" y1="48.6853" x2="-36.1149" y2="67.186" gradientUnits="userSpaceOnUse">
<stop stop-color="#F4AC24"/>
<stop offset="1" stop-color="#FF00C1"/>
</linearGradient>
<linearGradient id="paint8_linear_422_206" x1="-21.9633" y1="47.7213" x2="-20.8006" y2="66.2117" gradientUnits="userSpaceOnUse">
<stop stop-color="#F4AC24"/>
<stop offset="1" stop-color="#FF00C1"/>
</linearGradient>
</defs>
</svg>
