<svg width="593" height="598" viewBox="0 0 593 598" fill="none" xmlns="http://www.w3.org/2000/svg">
<g clip-path="url(#clip0_6_3)">
<mask id="mask0_6_3" style="mask-type:luminance" maskUnits="userSpaceOnUse" x="0" y="-10" width="805" height="608">
<path d="M0 -10H805V598H0V-10Z" fill="white"/>
</mask>
<g mask="url(#mask0_6_3)">
<g opacity="0.2" filter="url(#filter0_f_6_3)">
<path d="M1087.16 -400.853L1112 -376.012L676.193 59.7951L372.157 349.214L651.352 34.9541L1087.16 -400.853Z" fill="url(#paint0_linear_6_3)"/>
</g>
<g opacity="0.32" filter="url(#filter1_f_6_3)">
<path d="M880.074 -390.376L904.915 -365.535L469.108 70.2726L165.071 359.691L444.267 45.4316L880.074 -390.376Z" fill="url(#paint1_linear_6_3)"/>
</g>
<g opacity="0.32" filter="url(#filter2_f_6_3)">
<path d="M800.568 -497L825.409 -472.159L389.602 -36.3516L85.566 253.067L364.761 -61.1927L800.568 -497Z" fill="url(#paint2_linear_6_3)"/>
</g>
</g>
</g>
<defs>
<filter id="filter0_f_6_3" x="292.157" y="-480.853" width="899.843" height="910.067" filterUnits="userSpaceOnUse" color-interpolation-filters="sRGB">
<feFlood flood-opacity="0" result="BackgroundImageFix"/>
<feBlend mode="normal" in="SourceGraphic" in2="BackgroundImageFix" result="shape"/>
<feGaussianBlur stdDeviation="40" result="effect1_foregroundBlur_6_3"/>
</filter>
<filter id="filter1_f_6_3" x="85.071" y="-470.376" width="899.844" height="910.067" filterUnits="userSpaceOnUse" color-interpolation-filters="sRGB">
<feFlood flood-opacity="0" result="BackgroundImageFix"/>
<feBlend mode="normal" in="SourceGraphic" in2="BackgroundImageFix" result="shape"/>
<feGaussianBlur stdDeviation="40" result="effect1_foregroundBlur_6_3"/>
</filter>
<filter id="filter2_f_6_3" x="5.56592" y="-577" width="899.843" height="910.067" filterUnits="userSpaceOnUse" color-interpolation-filters="sRGB">
<feFlood flood-opacity="0" result="BackgroundImageFix"/>
<feBlend mode="normal" in="SourceGraphic" in2="BackgroundImageFix" result="shape"/>
<feGaussianBlur stdDeviation="40" result="effect1_foregroundBlur_6_3"/>
</filter>
<linearGradient id="paint0_linear_6_3" x1="1099.58" y1="-388.433" x2="663.772" y2="47.3746" gradientUnits="userSpaceOnUse">
<stop stop-color="white"/>
<stop offset="1" stop-color="#D3D8DF"/>
</linearGradient>
<linearGradient id="paint1_linear_6_3" x1="892.495" y1="-377.955" x2="456.687" y2="57.8521" gradientUnits="userSpaceOnUse">
<stop stop-color="white"/>
<stop offset="1" stop-color="#D3D8DF"/>
</linearGradient>
<linearGradient id="paint2_linear_6_3" x1="812.989" y1="-484.579" x2="377.181" y2="-48.7722" gradientUnits="userSpaceOnUse">
<stop stop-color="white"/>
<stop offset="1" stop-color="#D3D8DF"/>
</linearGradient>
<clipPath id="clip0_6_3">
<rect width="805" height="608" fill="white" transform="matrix(-1 0 0 1 805 -10)"/>
</clipPath>
</defs>
</svg>
