<svg width="51" height="51" viewBox="0 0 51 51" fill="none" xmlns="http://www.w3.org/2000/svg">
<circle cx="25.0737" cy="25.0741" r="24.8107" fill="url(#paint0_linear_556_241)" stroke="url(#paint1_linear_556_241)" stroke-width="0.526653"/>
<path d="M18.6407 27.7038L19.674 31.0311C19.9061 31.7865 20.003 32.3139 19.9642 32.6144C20.5293 31.1124 20.9242 29.4755 21.1488 27.7038H22.3913C21.857 30.5882 21.1525 32.6841 20.2778 33.9916C19.5963 34.9992 18.8498 35.5029 18.0368 35.5029C17.8201 35.5029 17.5528 35.438 17.2357 35.3089V34.6137C17.3907 34.6362 17.5724 34.6483 17.7815 34.6483C18.1607 34.6482 18.4665 34.544 18.6989 34.3357C18.9774 34.0821 19.1168 33.797 19.1168 33.481C19.1168 33.2652 19.0081 32.8224 18.7916 32.1526L17.352 27.7038H18.6407ZM10.7326 25.6588L12.6252 31.3894H12.6368L14.541 25.6588H16.0968C16.4375 28.5008 16.6387 31.1011 16.7004 33.4581H15.3888C15.3426 31.2549 15.2149 29.1829 15.0058 27.2422H14.9943L12.997 33.4581H11.9981L10.0128 27.2422H10.0011C9.85392 29.106 9.76104 31.178 9.72248 33.4581H8.52637C8.60366 30.6849 8.79711 28.0854 9.10669 25.6588H10.7326Z" fill="#00758F"/>
<path d="M31.9344 25.5431C33.9702 25.5431 34.9882 26.8339 34.9882 29.4141C34.9882 30.8163 34.6821 31.8754 34.0704 32.5909C33.9602 32.7217 33.8383 32.8346 33.71 32.9393L35.1507 33.6462L35.1493 33.6461L34.6378 34.5228L32.7616 33.4364C32.4505 33.5278 32.1085 33.5735 31.7355 33.5735C30.7359 33.5735 29.9893 33.2843 29.4956 32.7068C28.9537 32.068 28.6829 31.0622 28.6829 29.6913C28.6829 28.2971 28.9885 27.242 29.6004 26.5256C30.1577 25.8702 30.9358 25.5431 31.9344 25.5431ZM25.7002 25.5544C26.4278 25.5544 27.0894 25.7476 27.6854 26.1327L27.3827 26.802C26.8727 26.5869 26.37 26.4789 25.8742 26.4789C25.4719 26.4789 25.1619 26.575 24.9458 26.7684C24.7286 26.96 24.5941 27.2066 24.5941 27.5073C24.5941 27.9692 24.9258 28.3699 25.5381 28.7083C25.7387 28.8172 25.9386 28.9272 26.1378 29.0386L26.1835 29.0641L26.2064 29.0769L26.2522 29.1024L26.275 29.1151L26.3207 29.1407C26.7842 29.4 27.2204 29.6476 27.2204 29.6476C27.8326 30.0789 28.1379 30.5388 28.1379 31.2962C28.1379 31.9577 27.8936 32.5006 27.4067 32.9255C26.9195 33.3485 26.2649 33.5605 25.4452 33.5605C24.6786 33.5605 23.9355 33.3164 23.2158 32.8323L23.5525 32.1624C24.1719 32.4704 24.7323 32.6243 25.2356 32.6243C25.7076 32.6243 26.0771 32.5197 26.3444 32.3132C26.6112 32.1051 26.771 31.815 26.771 31.447C26.771 30.9839 26.4464 30.5881 25.851 30.256C25.6646 30.1538 25.4787 30.0506 25.2935 29.9464L25.2479 29.9208C25.164 29.8738 25.0796 29.8262 24.997 29.7796L24.9521 29.7543C24.5501 29.5274 24.2024 29.3291 24.2024 29.3291C23.6072 28.8969 23.3087 28.4333 23.3087 27.6694C23.3087 27.0376 23.5313 26.5269 23.9758 26.1384C24.4214 25.749 24.9962 25.5544 25.7002 25.5544ZM37.3807 25.6588V32.4987H39.8536V33.4581H36.1266V25.6588L37.3807 25.6588ZM41.2277 32.5016V32.6637H40.9558V33.4572H40.7479V32.6637H40.4655V32.5016H41.2277ZM41.7297 32.5016L41.9907 33.153L42.2305 32.5016H42.5252V33.4572H42.3293V32.73L42.0563 33.4572H41.9151L41.6417 32.73H41.6312V33.4572H41.4459V32.5016H41.7297ZM31.8064 26.5022C30.6067 26.5022 30.0065 27.4848 30.0065 29.4487C30.0065 30.5737 30.1656 31.3894 30.4831 31.8979C30.7771 32.3684 31.2376 32.6032 31.8647 32.6032C33.0644 32.6032 33.6645 31.613 33.6645 29.6334C33.6645 28.5242 33.5055 27.7154 33.1884 27.2067C32.894 26.7373 32.4337 26.5022 31.8065 26.5022" fill="#F29111"/>
<path d="M28.6623 13.0099C29.0603 12.0395 30.4518 12.7744 30.9918 13.1134C31.1242 13.1982 31.276 13.3774 31.4277 13.4436C31.6645 13.4529 31.901 13.4713 32.1382 13.4811C32.5829 13.5848 32.9996 13.6696 33.3501 13.8677C34.9789 14.8196 36.0392 15.7897 37.015 17.3921C37.2235 17.7315 37.3277 18.0987 37.4981 18.466C37.7345 19.0135 38.0001 19.5881 38.2745 20.1058C38.3973 20.3512 38.4924 20.6241 38.663 20.8314C38.7296 20.9262 38.9188 20.9541 39.0319 21.0107C39.3445 21.1713 39.7233 21.2932 40.0173 21.4817C40.5664 21.8215 41.0974 22.2264 41.58 22.6409C41.7599 22.801 41.8825 23.0275 42.0539 23.1967V23.2821C41.9017 23.3284 41.7501 23.3759 41.5984 23.4139C41.267 23.4984 40.9734 23.4793 40.6518 23.5638C40.4531 23.621 40.2064 23.6965 39.9981 23.7157L40.0173 23.7349C40.1399 24.0826 40.8032 24.3653 41.1065 24.5732C41.4749 24.8371 41.8163 25.1571 42.0911 25.5246C42.186 25.6184 42.2809 25.7038 42.3753 25.7973C42.4413 25.892 42.4599 26.0146 42.5267 26.0991V26.1277C42.4528 26.1018 42.3996 26.0524 42.3492 26.0007L42.3191 25.9696C42.289 25.9386 42.2587 25.9081 42.2241 25.883C42.015 25.7413 41.8074 25.5718 41.5984 25.4401C41.239 25.2138 40.8222 25.0824 40.4531 24.8553C40.2445 24.7234 40.0456 24.5732 39.8467 24.4223C39.6664 24.29 39.4679 24.036 39.3546 23.8476C39.2878 23.7434 39.2787 23.621 39.2024 23.5457C39.2161 23.4199 39.3322 23.3825 39.4494 23.3518L39.4764 23.3448C39.5168 23.3344 39.5564 23.324 39.5909 23.3102C40.0833 23.1027 40.6702 23.0275 41.4282 23.0463C41.3996 22.8574 40.926 22.6221 40.7748 22.509C40.4713 22.2919 40.15 22.0654 39.8281 21.8678C39.6575 21.7644 39.3635 21.6888 39.1745 21.6043C38.9188 21.5006 38.3504 21.3969 38.2087 21.1993C37.968 20.8879 37.795 20.5164 37.6272 20.1411L37.5815 20.0387L37.5357 19.9364C37.3372 19.4845 37.0907 19.0133 36.8918 18.5506C36.7879 18.3249 36.7401 18.1268 36.6262 17.9103C35.9351 16.5819 34.9123 15.4696 33.6721 14.6874C33.2646 14.4329 32.8102 14.1974 32.3086 14.0373C32.0243 13.9521 31.6831 13.9992 31.3802 13.9338H31.1808C31.0107 13.8862 30.8687 13.7073 30.7359 13.6129C30.4427 13.4153 30.1491 13.2826 29.7985 13.1417C29.6756 13.0851 29.3248 12.9535 29.2023 13.0571C29.1265 13.076 29.088 13.1044 29.0694 13.18C28.9939 13.2927 29.0603 13.4624 29.1072 13.5664C29.2495 13.8675 29.4482 14.0465 29.6285 14.301C29.789 14.5268 29.9883 14.7813 30.102 15.0267C30.3474 15.5542 30.4617 16.1387 30.6892 16.6662C30.7735 16.8646 30.9069 17.0903 31.0297 17.2692C31.1338 17.4112 31.3229 17.5139 31.3802 17.6937C31.4943 17.8822 31.2094 18.5041 31.1435 18.7016C30.8968 19.4745 30.9446 20.5487 31.2287 21.2186L31.2438 21.254L31.2589 21.2897C31.3627 21.5351 31.4737 21.7993 31.7495 21.8679C31.7685 21.8492 31.7495 21.859 31.7871 21.8492C31.8539 21.3307 31.8727 20.8313 32.0528 20.4256C32.1568 20.172 32.3646 19.9926 32.507 19.7856C32.602 19.842 32.602 20.0121 32.6586 20.1247C32.7818 20.4166 32.9142 20.7367 33.0661 21.0295C33.378 21.6325 33.7288 22.2171 34.1264 22.7446C34.2596 22.933 34.4485 23.1404 34.6189 23.3101C34.6948 23.3758 34.7798 23.4138 34.8368 23.4983H34.8554V23.5268C34.5713 23.4229 34.3912 23.1312 34.1647 22.9609C33.7381 22.6408 33.2272 22.1601 32.9332 21.6989C32.8102 21.4341 32.6772 21.1803 32.5447 20.9168V20.8978C32.488 20.973 32.507 21.0477 32.4787 21.1616C32.3557 21.6325 32.4504 22.1697 32.0243 22.339C31.5412 22.5374 31.1809 22.019 31.0297 21.7834C30.5465 21.0014 30.4142 19.6821 30.7549 18.6172C30.8306 18.3815 30.8409 18.0987 30.9731 17.9105C30.9445 17.7404 30.8124 17.6938 30.7359 17.5896C30.6034 17.4114 30.4899 17.2038 30.3861 17.0059C30.1867 16.6193 30.0449 16.1574 29.8936 15.7428C29.827 15.5735 29.808 15.4035 29.7416 15.2432C29.6285 14.9986 29.4199 14.7532 29.259 14.5368C29.0411 14.2257 28.4065 13.6228 28.6623 13.0099ZM31.7683 14.8562C31.7936 14.8814 31.8241 14.9034 31.8557 14.9251L31.8938 14.951C31.9446 14.986 31.9939 15.0227 32.024 15.0728C32.0718 15.1391 32.0807 15.2046 32.138 15.271C32.138 15.4975 32.0718 15.6481 31.9383 15.7419C31.9383 15.7419 31.9292 15.7518 31.9198 15.761C31.8441 15.6101 31.7778 15.4599 31.7015 15.309C31.6076 15.1773 31.4749 15.0729 31.3984 14.9224H31.38V14.9035C31.4943 14.8755 31.6076 14.8562 31.7683 14.8562Z" fill="#00758F"/>
<defs>
<linearGradient id="paint0_linear_556_241" x1="10.6518" y1="0.526673" x2="48.0178" y2="9.42658" gradientUnits="userSpaceOnUse">
<stop stop-color="#04071D"/>
<stop offset="1" stop-color="#0C0E23"/>
</linearGradient>
<linearGradient id="paint1_linear_556_241" x1="25.0737" y1="0.526672" x2="25.0737" y2="49.6214" gradientUnits="userSpaceOnUse">
<stop stop-color="#66699C" stop-opacity="0.43"/>
<stop offset="1" stop-color="#363749" stop-opacity="0.49"/>
</linearGradient>
</defs>
</svg>
