<svg width="51" height="51" viewBox="0 0 51 51" fill="none" xmlns="http://www.w3.org/2000/svg">
<circle cx="25.0737" cy="25.0741" r="24.8107" fill="url(#paint0_linear_397_134)" stroke="url(#paint1_linear_397_134)" stroke-width="0.526653"/>
<path fill-rule="evenodd" clip-rule="evenodd" d="M25.0428 17.7783C21.6202 17.7783 19.4817 19.5003 18.6256 22.9444C19.9092 21.2224 21.4065 20.5767 23.1175 21.007C24.0937 21.2524 24.7918 21.9652 25.5639 22.7545C26.8223 24.0396 28.2788 25.5269 31.4595 25.5269C34.8816 25.5269 37.0206 23.8049 37.8761 20.3613C36.5931 22.0834 35.0958 22.729 33.3848 22.2982C32.408 22.0528 31.7099 21.34 30.9379 20.5513C29.6795 19.2651 28.2235 17.7783 25.0428 17.7783ZM18.6256 25.5269C15.2036 25.5269 13.0645 27.2489 12.209 30.6929C13.4925 28.9709 14.9898 28.3253 16.7003 28.7555C17.6771 29.001 18.3752 29.7138 19.1472 30.503C20.4056 31.7882 21.8616 33.2755 25.0428 33.2755C28.4649 33.2755 30.6039 31.554 31.4595 28.1099C30.1759 29.8319 28.6786 30.4776 26.9676 30.0473C25.9914 29.8014 25.2933 29.0885 24.5212 28.2998C23.2629 27.0147 21.8063 25.5269 18.6256 25.5269Z" fill="#38BDF8"/>
<defs>
<linearGradient id="paint0_linear_397_134" x1="10.6518" y1="0.526673" x2="48.0178" y2="9.42658" gradientUnits="userSpaceOnUse">
<stop stop-color="#04071D"/>
<stop offset="1" stop-color="#0C0E23"/>
</linearGradient>
<linearGradient id="paint1_linear_397_134" x1="25.0737" y1="0.526672" x2="25.0737" y2="49.6214" gradientUnits="userSpaceOnUse">
<stop stop-color="#66699C" stop-opacity="0.43"/>
<stop offset="1" stop-color="#363749" stop-opacity="0.49"/>
</linearGradient>
</defs>
</svg>
