<svg width="249" height="121" viewBox="0 0 249 121" fill="none" xmlns="http://www.w3.org/2000/svg">
<g clip-path="url(#clip0_159_38)">
<path d="M218.569 17.2017H30.4311C24.2912 17.2017 19.3138 24.7695 19.3138 34.1049V165.43C19.3138 174.766 24.2912 182.333 30.4311 182.333H218.569C224.709 182.333 229.686 174.766 229.686 165.43V34.1049C229.686 24.7695 224.709 17.2017 218.569 17.2017Z" fill="white" fill-opacity="0.05"/>
<path d="M218.141 18.0894H30.0035C24.0998 18.0894 19.3138 25.8576 19.3138 35.4403V175.636C19.3138 185.219 24.0998 192.987 30.0035 192.987H218.141C224.045 192.987 228.831 185.219 228.831 175.636V35.4403C228.831 25.8576 224.045 18.0894 218.141 18.0894Z" stroke="white" stroke-opacity="0.1"/>
<path d="M47.1069 36.7333C47.1069 31.8301 43.2781 27.8552 38.5551 27.8552C33.8322 27.8552 30.0034 31.8301 30.0034 36.7333C30.0034 41.6365 33.8322 45.6113 38.5551 45.6113C43.2781 45.6113 47.1069 41.6365 47.1069 36.7333Z" fill="white" fill-opacity="0.2"/>
<path d="M46.6793 36.7332C46.6793 32.0752 43.042 28.2991 38.5552 28.2991C34.0683 28.2991 30.431 32.0752 30.431 36.7332C30.431 41.3913 34.0683 45.1674 38.5552 45.1674C43.042 45.1674 46.6793 41.3913 46.6793 36.7332Z" stroke="white" stroke-opacity="0.1"/>
<path d="M196.762 56.2649H33.4241C31.5349 56.2649 30.0034 57.8548 30.0034 59.8161C30.0034 61.7774 31.5349 63.3673 33.4241 63.3673H196.762C198.651 63.3673 200.183 61.7774 200.183 59.8161C200.183 57.8548 198.651 56.2649 196.762 56.2649Z" fill="white" fill-opacity="0.2"/>
<path d="M92.4311 33.1821H58.2242C56.335 33.1821 54.8035 34.7721 54.8035 36.7333C54.8035 38.6946 56.335 40.2846 58.2242 40.2846H92.4311C94.3203 40.2846 95.8517 38.6946 95.8517 36.7333C95.8517 34.7721 94.3203 33.1821 92.4311 33.1821Z" fill="white" fill-opacity="0.2"/>
<path d="M118.086 33.1821H104.403C102.514 33.1821 100.983 34.7721 100.983 36.7333C100.983 38.6946 102.514 40.2846 104.403 40.2846H118.086C119.975 40.2846 121.507 38.6946 121.507 36.7333C121.507 34.7721 119.975 33.1821 118.086 33.1821Z" fill="white" fill-opacity="0.2"/>
<path d="M100.983 70.4697H33.4241C31.5349 70.4697 30.0034 72.0597 30.0034 74.0209C30.0034 75.9822 31.5349 77.5722 33.4241 77.5722H100.983C102.872 77.5722 104.403 75.9822 104.403 74.0209C104.403 72.0597 102.872 70.4697 100.983 70.4697Z" fill="white" fill-opacity="0.2"/>
</g>
<defs>
<clipPath id="clip0_159_38">
<rect width="248" height="182" fill="white" transform="translate(0.5 0.333252)"/>
</clipPath>
</defs>
</svg>
