<svg width="51" height="51" viewBox="0 0 51 51" fill="none" xmlns="http://www.w3.org/2000/svg">
<circle cx="25.0737" cy="25.0741" r="24.8107" fill="url(#paint0_linear_408_116)" stroke="url(#paint1_linear_408_116)" stroke-width="0.526653"/>
<g clip-path="url(#clip0_408_116)">
<path d="M16.8027 31.8909L19.7568 12.9883C19.7745 12.8753 19.8272 12.7708 19.9076 12.6894C19.9879 12.608 20.0918 12.554 20.2045 12.5348C20.3172 12.5157 20.4331 12.5324 20.5358 12.5827C20.6385 12.633 20.7228 12.7143 20.7768 12.815L23.8319 18.5132L25.0495 16.1945C25.0958 16.1066 25.1653 16.033 25.2504 15.9816C25.3355 15.9302 25.433 15.9031 25.5324 15.9031C25.6318 15.9031 25.7293 15.9302 25.8143 15.9816C25.8994 16.033 25.9689 16.1066 26.0152 16.1945L34.2595 31.8909H16.8027Z" fill="#FFA000"/>
<path d="M27.0082 24.5276L23.8304 18.5104L16.8027 31.8909L27.0082 24.5276Z" fill="#F57C00"/>
<path d="M34.2595 31.8909L31.997 17.8899C31.9803 17.7912 31.9367 17.699 31.8711 17.6234C31.8055 17.5478 31.7203 17.4917 31.625 17.4613C31.5297 17.4309 31.4278 17.4273 31.3306 17.451C31.2334 17.4746 31.1445 17.5245 31.0737 17.5952L16.8027 31.8907L24.6993 36.3191C24.9432 36.4552 25.2178 36.5267 25.4971 36.5267C25.7764 36.5267 26.051 36.4552 26.2949 36.3191L34.2595 31.8909Z" fill="#FFCA28"/>
<path d="M31.9968 17.89C31.9801 17.7913 31.9365 17.6991 31.8709 17.6235C31.8053 17.5479 31.7201 17.4918 31.6248 17.4613C31.5295 17.4309 31.4276 17.4273 31.3304 17.4509C31.2332 17.4745 31.1443 17.5243 31.0735 17.595L28.241 20.4351L26.0137 16.1946C25.9674 16.1066 25.8979 16.033 25.8128 15.9816C25.7277 15.9303 25.6302 15.9031 25.5308 15.9031C25.4315 15.9031 25.3339 15.9303 25.2489 15.9816C25.1638 16.033 25.0943 16.1066 25.048 16.1946L23.8304 18.513L20.7753 12.8151C20.7212 12.7141 20.6368 12.6328 20.5339 12.5825C20.431 12.5322 20.3149 12.5156 20.2021 12.535C20.0893 12.5543 19.9855 12.6086 19.9053 12.6902C19.8251 12.7718 19.7725 12.8766 19.7551 12.9896L16.8025 31.8909H16.793L16.8023 31.9018L16.8802 31.9401L31.0694 17.7343C31.1402 17.6633 31.2292 17.6131 31.3266 17.5893C31.424 17.5654 31.5261 17.569 31.6217 17.5994C31.7172 17.6298 31.8026 17.686 31.8683 17.7618C31.934 17.8376 31.9775 17.93 31.9942 18.0289L34.2376 31.9044L34.2593 31.8908L31.9968 17.89ZM16.8284 31.8651L19.7564 13.1233C19.7738 13.0102 19.8263 12.9054 19.9066 12.8237C19.9869 12.7421 20.0908 12.6878 20.2036 12.6685C20.3165 12.6491 20.4326 12.6658 20.5354 12.7161C20.6383 12.7664 20.7227 12.8478 20.7768 12.9488L23.8315 18.6469L25.0493 16.3283C25.0956 16.2403 25.1651 16.1667 25.2502 16.1153C25.3353 16.0639 25.4328 16.0368 25.5322 16.0368C25.6315 16.0368 25.7291 16.0639 25.8141 16.1153C25.8992 16.1667 25.9687 16.2403 26.015 16.3283L28.1971 20.4786L16.828 31.8651H16.8284Z" fill="white" fill-opacity="0.2"/>
</g>
<defs>
<linearGradient id="paint0_linear_408_116" x1="10.6518" y1="0.526673" x2="48.0178" y2="9.42658" gradientUnits="userSpaceOnUse">
<stop stop-color="#04071D"/>
<stop offset="1" stop-color="#0C0E23"/>
</linearGradient>
<linearGradient id="paint1_linear_408_116" x1="25.0737" y1="0.526672" x2="25.0737" y2="49.6214" gradientUnits="userSpaceOnUse">
<stop stop-color="#66699C" stop-opacity="0.43"/>
<stop offset="1" stop-color="#363749" stop-opacity="0.49"/>
</linearGradient>
<clipPath id="clip0_408_116">
<rect width="24" height="24" fill="white" transform="translate(13.5264 12.5267)"/>
</clipPath>
</defs>
</svg>
